<?xml version="1.0" encoding="UTF-8" standalone="no"?>
<!DOCTYPE svg PUBLIC "-//W3C//DTD SVG 1.1//EN" "http://www.w3.org/Graphics/SVG/1.1/DTD/svg11.dtd">
<svg version="1.1" xmlns="http://www.w3.org/2000/svg" xmlns:xlink="http://www.w3.org/1999/xlink" preserveAspectRatio="xMidYMid meet" viewBox="0 0 640 640" width="640" height="640"><defs><path d="M279.91 374.57C317.22 354.29 356.53 335.72 386.41 319.16C386.4 319.16 386.35 319.16 386.26 319.16C338.99 294.39 303.55 275.82 279.91 263.43C279.91 274.54 279.91 363.46 279.91 374.57Z" id="a1RZHR4HZc"></path><path d="M279.91 374.57C317.22 354.29 356.53 335.72 386.41 319.16C386.4 319.16 386.35 319.16 386.26 319.16C338.99 294.39 303.55 275.82 279.91 263.43C279.91 274.54 279.91 363.46 279.91 374.57Z" id="d2vr9qWUhn"></path><path d="M155.36 432.3C150.48 427.31 146.59 419.69 143.58 409.13C141 400.33 139.99 393 138.55 375.11C136.36 334.74 135.83 301.73 138.55 264.85C140.8 244.48 141.89 220.31 156.79 206.2C163.83 199.6 172.02 195.35 181.22 193.6C195.58 190.81 256.78 188.61 320.14 188.61C383.35 188.61 444.68 190.81 459.06 193.6C470.55 195.8 481.32 202.39 487.65 210.89C501.25 232.73 501.49 259.89 502.87 281.13C503.44 291.25 503.44 348.72 502.87 358.84C500.72 392.41 498.99 404.29 494.11 416.6C491.09 424.38 488.51 428.48 484.05 433.03C477.05 440.03 468.13 444.68 458.47 446.37C398.06 451.01 346.76 452.01 288.53 451.06C218.71 449.75 194.87 448.57 180.21 445.49C170.3 443.44 161.68 438.89 155.36 432.3ZM282.35 368.52C316.97 349.31 353.47 331.71 381.19 316.03C381.18 316.04 381.13 316.08 381.05 316.17C337.18 292.62 304.29 274.97 282.35 263.24C282.35 273.77 282.35 357.99 282.35 368.52Z" id="chrFiXSNS"></path><path d="M155.36 432.3C150.48 427.31 146.59 419.69 143.58 409.13C141 400.33 139.99 393 138.55 375.11C136.36 334.74 135.83 301.73 138.55 264.85C140.8 244.48 141.89 220.31 156.79 206.2C163.83 199.6 172.02 195.35 181.22 193.6C195.58 190.81 256.78 188.61 320.14 188.61C383.35 188.61 444.68 190.81 459.06 193.6C470.55 195.8 481.32 202.39 487.65 210.89C501.25 232.73 501.49 259.89 502.87 281.13C503.44 291.25 503.44 348.72 502.87 358.84C500.72 392.41 498.99 404.29 494.11 416.6C491.09 424.38 488.51 428.48 484.05 433.03C477.05 440.03 468.13 444.68 458.47 446.37C398.06 451.01 346.76 452.01 288.53 451.06C218.71 449.75 194.87 448.57 180.21 445.49C170.3 443.44 161.68 438.89 155.36 432.3ZM282.35 368.52C316.97 349.31 353.47 331.71 381.19 316.03C381.18 316.04 381.13 316.08 381.05 316.17C337.18 292.62 304.29 274.97 282.35 263.24C282.35 273.77 282.35 357.99 282.35 368.52Z" id="b2ol5EEMQm"></path></defs><g><g><g><use xlink:href="#a1RZHR4HZc" opacity="1" fill="#ffffff" fill-opacity="0"></use><g><use xlink:href="#a1RZHR4HZc" opacity="1" fill-opacity="0" stroke="#000000" stroke-width="1" stroke-opacity="0"></use></g></g><g><use xlink:href="#d2vr9qWUhn" opacity="1" fill="#000000" fill-opacity="0"></use><g><use xlink:href="#d2vr9qWUhn" opacity="1" fill-opacity="0" stroke="#000000" stroke-width="1" stroke-opacity="0"></use></g></g><g><use xlink:href="#chrFiXSNS" opacity="1" fill="#cd201f" fill-opacity="1"></use><g><use xlink:href="#chrFiXSNS" opacity="1" fill-opacity="0" stroke="#000000" stroke-width="1" stroke-opacity="0"></use></g></g><g><use xlink:href="#b2ol5EEMQm" opacity="1" fill="#000000" fill-opacity="0"></use><g><use xlink:href="#b2ol5EEMQm" opacity="1" fill-opacity="0" stroke="#000000" stroke-width="1" stroke-opacity="0"></use></g></g></g></g></svg>